<svg aria-hidden="true" style="position: absolute; width: 0; height: 0; overflow: hidden;" version="1.1" xmlns="http://www.w3.org/2000/svg" xmlns:xlink="http://www.w3.org/1999/xlink">
<defs>
<symbol id="icon-line" viewBox="0 0 56 32">
<path d="M30.6 21.136c-0.664 0.668-1.584 1.081-2.6 1.081s-1.936-0.413-2.6-1.081l-0-0-16.8-16.832c-0.672-0.725-1.629-1.177-2.692-1.177-2.026 0-3.668 1.642-3.668 3.668 0 1.055 0.445 2.006 1.158 2.675l0.002 0.002 16.828 16.832c1.99 1.987 4.738 3.216 7.772 3.216s5.782-1.229 7.772-3.216l16.832-16.828c0.659-0.663 1.066-1.577 1.066-2.586 0-2.027-1.643-3.67-3.67-3.67-1.018 0-1.939 0.414-2.604 1.084l-0 0-16.792 16.828z"></path>
</symbol>
<symbol id="icon-facebook" viewBox="0 0 32 32">
<path  d="M21.33 5.314h2.92v-5.088c-1.238-0.144-2.672-0.226-4.125-0.226-0.046 0-0.092 0-0.138 0l0.007-0c-4.212 0-7.094 2.65-7.094 7.52v4.48h-4.65v5.688h4.648v14.312h5.698v-14.31h4.46l0.708-5.69h-5.17v-3.92c0.002-1.644 0.444-2.768 2.736-2.768z"></path>
</symbol>
<symbol id="icon-instagram" viewBox="0 0 32 32">
<path  d="M31.968 9.408c-0.074-1.7-0.35-2.87-0.744-3.882-0.424-1.111-1.053-2.058-1.849-2.837l-0.001-0.001c-0.78-0.792-1.724-1.419-2.778-1.826l-0.054-0.018c-1.020-0.394-2.18-0.67-3.88-0.744-1.716-0.080-2.262-0.1-6.602-0.1-4.346 0-4.89 0.020-6.596 0.094-1.7 0.074-2.868 0.35-3.88 0.744-1.112 0.424-2.060 1.053-2.839 1.849l-0.001 0.001c-0.792 0.78-1.419 1.724-1.826 2.778l-0.018 0.054c-0.394 1.020-0.668 2.18-0.744 3.88-0.080 1.714-0.1 2.26-0.1 6.602 0 4.346 0.020 4.89 0.094 6.596 0.074 1.7 0.35 2.87 0.744 3.882 0.406 1.076 1.038 2.038 1.85 2.84 0.8 0.81 1.77 1.442 2.832 1.842 1.020 0.394 2.18 0.67 3.882 0.744 1.706 0.076 2.25 0.094 6.596 0.094 4.344 0 4.888-0.020 6.594-0.094 1.7-0.074 2.87-0.35 3.882-0.744 2.156-0.85 3.832-2.524 4.663-4.625l0.019-0.055c0.394-1.020 0.67-2.184 0.744-3.884 0.076-1.706 0.094-2.25 0.094-6.594 0-4.346-0.006-4.89-0.080-6.596zM29.088 22.472c-0.070 1.564-0.332 2.408-0.552 2.97-0.551 1.4-1.638 2.488-3.002 3.027l-0.036 0.013c-0.562 0.218-1.412 0.48-2.968 0.548-1.688 0.076-2.194 0.094-6.464 0.094s-4.782-0.020-6.464-0.094c-1.564-0.068-2.408-0.33-2.97-0.55-0.721-0.269-1.335-0.676-1.837-1.193l-0.001-0.001c-0.517-0.504-0.923-1.118-1.183-1.804l-0.011-0.034c-0.22-0.562-0.48-1.412-0.55-2.968-0.074-1.688-0.094-2.196-0.094-6.464 0-4.27 0.020-4.782 0.094-6.464 0.070-1.564 0.332-2.406 0.55-2.97 0.256-0.694 0.664-1.324 1.2-1.838 0.52-0.53 1.144-0.938 1.84-1.194 0.56-0.22 1.412-0.48 2.968-0.55 1.688-0.074 2.194-0.094 6.464-0.094 4.276 0 4.78 0.020 6.464 0.094 1.562 0.070 2.406 0.332 2.968 0.55 0.694 0.256 1.326 0.664 1.84 1.194 0.53 0.52 0.936 1.144 1.192 1.84 0.22 0.56 0.482 1.412 0.55 2.968 0.076 1.688 0.094 2.194 0.094 6.464s-0.018 4.77-0.092 6.458z"></path>
<path  d="M16.060 7.782c-4.462 0.102-8.041 3.743-8.041 8.22s3.578 8.118 8.031 8.22l0.009 0c4.462-0.102 8.041-3.743 8.041-8.22s-3.578-8.118-8.031-8.22l-0.009-0zM16.060 21.336c-2.946 0-5.334-2.388-5.334-5.334s2.388-5.334 5.334-5.334v0c2.946 0 5.334 2.388 5.334 5.334s-2.388 5.334-5.334 5.334v0zM26.524 7.458c0 1.060-0.86 1.92-1.92 1.92s-1.92-0.86-1.92-1.92v0c0-1.060 0.86-1.92 1.92-1.92s1.92 0.86 1.92 1.92v0z"></path>
</symbol>
<symbol id="icon-twitter" viewBox="0 0 32 32">
<path stroke-linejoin="round" stroke-linecap="round" stroke-miterlimit="4" stroke-width="2.6667" d="M30.667 4c-1.2 0.856-2.591 1.552-4.084 2.013l-0.103 0.027c-1.101-1.261-2.712-2.053-4.507-2.053-3.299 0-5.973 2.674-5.973 5.973 0 0.028 0 0.056 0.001 0.084l-0-0.004v1.333c-0.109 0.003-0.238 0.005-0.367 0.005-2.331 0-4.53-0.561-6.471-1.555l0.080 0.037c-2.093-1.053-4.56-3.563-5.908-5.48 0 0-4.667 12.953 7.333 18.287-2.442 1.677-5.462 2.679-8.716 2.679-0.217 0-0.433-0.004-0.648-0.013l0.031 0.001c12 6.667 26.667 0 26.667-15.333 0-0.372-0.037-0.741-0.107-1.107 1.323-1.305 2.293-2.963 2.758-4.822l0.015-0.071z"></path>
</symbol>
<symbol id="icon-phone" viewBox="0 0 24 32">
<path d="M19.635 18.487l-2.451-0.28c-0.067-0.008-0.145-0.013-0.223-0.013-0.531 0-1.012 0.215-1.36 0.564l-1.775 1.775c-2.752-1.42-4.94-3.607-6.322-6.278l-0.038-0.081 1.787-1.785c0.347-0.347 0.562-0.827 0.562-1.358 0-0.079-0.005-0.156-0.014-0.233l0.001 0.009-0.28-2.432c-0.115-0.966-0.93-1.708-1.918-1.708-0.001 0-0.002 0-0.002 0h-1.669c-1.091 0-1.997 0.907-1.929 1.997 0.511 8.24 7.101 14.821 15.332 15.333 1.091 0.067 1.997-0.84 1.997-1.931v-1.669c0-0.003 0-0.007 0-0.011 0-0.981-0.739-1.789-1.69-1.899l-0.009-0.001z"></path>
</symbol>
<symbol id="icon-person" viewBox="0 0 32 32">
<path d="M16 16c2.946 0 5.333-2.388 5.333-5.333s-2.388-5.333-5.333-5.333v0c-2.946 0-5.333 2.388-5.333 5.333s2.388 5.333 5.333 5.333v0zM16 18.667c-3.561 0-10.667 1.787-10.667 5.333v1.333c0 0.732 0.599 1.333 1.333 1.333h18.667c0.732 0 1.333-0.601 1.333-1.333v-1.333c0-3.547-7.108-5.333-10.667-5.333z"></path>
</symbol>
<symbol id="icon-email" viewBox="0 0 24 32">
<path d="M20 8h-16c-1.1 0-1.989 0.9-1.989 2l-0.011 12c0 1.1 0.9 2 2 2h16c1.1 0 2-0.9 2-2v-12c0-1.1-0.9-2-2-2zM19.6 12.251l-7.069 4.419c-0.151 0.094-0.334 0.15-0.531 0.15s-0.38-0.056-0.535-0.153l0.004 0.002-7.069-4.419c-0.252-0.15-0.418-0.422-0.418-0.731 0-0.469 0.38-0.849 0.849-0.849 0.174 0 0.337 0.053 0.471 0.143l6.697 4.187 6.7-4.191c0.132-0.088 0.294-0.141 0.468-0.141 0.469 0 0.849 0.38 0.849 0.849 0 0.31-0.166 0.581-0.414 0.729l-0.004 0.002z"></path>
</symbol>
<symbol id="icon-close" viewBox="0 0 32 32">
<path d="M32 3.224l-3.224-3.224-12.776 12.776-12.776-12.776-3.224 3.224 12.776 12.776-12.776 12.776 3.224 3.224 12.776-12.776 12.776 12.776 3.224-3.224-12.776-12.776 12.776-12.776z"></path>
</symbol>
<symbol id="icon-send" viewBox="0 0 38 32">
<path d="M38.4 0l-38.4 18 12.272 3.787 18.928-14.787-14.397 16.186 0.011 0.005-0.014-0.005v8.814l6.882-6.691 8.72 2.691 5.998-28z"></path>
</symbol>
<symbol id="icon-active" viewBox="0 0 40 32">
<path d="M33.784 1.020c0.659-0.637 1.558-1.030 2.548-1.030 2.007 0 3.637 1.611 3.668 3.611l0 0.003c0.001 0.028 0.001 0.061 0.001 0.095 0 0.965-0.368 1.844-0.972 2.504l0.003-0.003-19.576 24.616c-0.674 0.728-1.635 1.182-2.702 1.182-0.495 0-0.967-0.098-1.398-0.275l0.024 0.009c-0.477-0.197-0.884-0.473-1.224-0.816l-0-0-12.984-13.052c-0.724-0.677-1.175-1.638-1.175-2.705 0-0.501 0.1-0.98 0.28-1.416l-0.009 0.025c0.564-1.367 1.887-2.312 3.43-2.312 0.018 0 0.035 0 0.053 0l-0.003-0c1.038 0.019 1.967 0.467 2.622 1.174l0.002 0.002 10.276 10.328 17.040-21.832c0.032-0.039 0.065-0.074 0.1-0.108l-0.004-0z"></path>
</symbol>
<symbol id="icon-Group" viewBox="0 0 36 32">
<path d="M1.2 4c0-1.325 1.075-2.4 2.4-2.4h28.8c1.325 0 2.4 1.075 2.4 2.4s-1.075 2.4-2.4 2.4h-28.8c-1.325 0-2.4-1.075-2.4-2.4v0zM1.2 16c0-1.325 1.075-2.4 2.4-2.4h28.8c1.325 0 2.4 1.075 2.4 2.4s-1.075 2.4-2.4 2.4h-28.8c-1.325 0-2.4-1.075-2.4-2.4v0zM1.2 28c0-1.325 1.075-2.4 2.4-2.4h28.8c1.325 0 2.4 1.075 2.4 2.4s-1.075 2.4-2.4 2.4h-28.8c-1.325 0-2.4-1.075-2.4-2.4v0z"></path>
</symbol>
<symbol id="icon-choco-plate" viewBox="0 0 28 32">
<path stroke-linejoin="round" stroke-linecap="round" stroke-miterlimit="4" stroke-width="2.6667" d="M20.301 23.88l-14.187-8.864M10.028 8.599l14.185 8.864M9.296 25.864l11.736-19.249M25.843 14.788c-3.040-1.899-4.233-3.383-2.277-6.591l-9.627-6.016-11.735 19.251 14.185 8.864 9.453-15.507z"></path>
</symbol>
<symbol id="icon-choco-plates" viewBox="0 0 32 32">
<path d="M13.511 0.472l8.602 8.613 0.091-0.091c0.176-0.173 0.418-0.279 0.684-0.279 0.259 0 0.494 0.101 0.669 0.265l-0.001-0.001 0.998 0.998c0.349 0.349 0.36 0.88 0.095 1.25l-0.005 0.008-0.163 0.219 7.040 7.040c0.629 0.629 0.629 1.634 0 2.263l-10.777 10.777c-0.629 0.629-1.634 0.629-2.263 0l-5.082-5.082c-0.178 0.223-0.449 0.365-0.754 0.365-0.266 0-0.508-0.108-0.682-0.284l-2.971-2.971c-0.173-0.176-0.279-0.418-0.279-0.684 0-0.259 0.101-0.494 0.265-0.669l-0.001 0.001 0.007-0.008 0.088-0.087-8.602-8.602c-0.629-0.629-0.629-1.634 0-2.263l10.777-10.777c0.629-0.629 1.634-0.629 2.263 0v0.001zM21.033 10.163l-2.007-2.006c-0.123-0.127-0.295-0.206-0.486-0.206s-0.363 0.079-0.486 0.205l-4.092 4.092c-0.126 0.126-0.205 0.299-0.205 0.491s0.078 0.366 0.205 0.491l1.999 1.999 0.697-0.697-1.789-1.789 3.669-3.68 1.793 1.799 0.701-0.701zM15.232 15.96l-2.005-2.005c-0.123-0.127-0.295-0.206-0.486-0.206s-0.363 0.079-0.486 0.205l-4.103 4.103c-0.274 0.263-0.274 0.697 0 0.971l2.002 2.002 0.704-0.704-1.794-1.787 3.68-3.669 1.787 1.786 0.699-0.698zM7.797 7.078l4.091 4.091c0.274 0.274 0.709 0.274 0.971-0.011l4.091-4.091c0.127-0.121 0.206-0.291 0.206-0.479 0-0 0-0 0-0.001v0h0.011c0-0.171-0.069-0.354-0.206-0.491l-4.091-4.091c-0.125-0.127-0.299-0.206-0.491-0.206s-0.366 0.079-0.491 0.205l-0 0-4.091 4.103c-0.274 0.263-0.274 0.697 0 0.971zM2.002 12.872l4.091 4.091c0.274 0.274 0.709 0.274 0.971 0l4.091-4.091c0.127-0.121 0.206-0.291 0.206-0.48 0-0.004-0-0.008-0-0.012v0.001h0.011c0-0.183-0.069-0.354-0.206-0.491l-4.091-4.091c-0.123-0.127-0.295-0.206-0.486-0.206s-0.363 0.079-0.486 0.205l-4.103 4.103c-0.274 0.263-0.274 0.697 0 0.971zM9.926 22.877l2.699 2.701 11.013-14.903-0.749-0.749-12.963 12.951z"></path>
<path d="M13.511 0.472l8.602 8.613 0.091-0.091c0.176-0.173 0.418-0.279 0.684-0.279 0.259 0 0.494 0.101 0.669 0.265l-0.001-0.001 0.998 0.998c0.349 0.349 0.36 0.88 0.095 1.25l-0.005 0.008-0.163 0.219 7.040 7.040c0.629 0.629 0.629 1.634 0 2.263l-10.777 10.777c-0.629 0.629-1.634 0.629-2.263 0l-5.082-5.082c-0.178 0.223-0.449 0.365-0.754 0.365-0.266 0-0.508-0.108-0.682-0.284l-2.971-2.971c-0.173-0.176-0.279-0.418-0.279-0.684 0-0.259 0.101-0.494 0.265-0.669l-0.001 0.001 0.007-0.008 0.088-0.087-8.602-8.602c-0.629-0.629-0.629-1.634 0-2.263l10.777-10.777c0.629-0.629 1.634-0.629 2.263 0v0.001zM21.033 10.163l-2.007-2.006c-0.123-0.127-0.295-0.206-0.486-0.206s-0.363 0.079-0.486 0.205l-4.092 4.092c-0.126 0.126-0.205 0.299-0.205 0.491s0.078 0.366 0.205 0.491l1.999 1.999 0.697-0.697-1.789-1.789 3.669-3.68 1.793 1.799 0.701-0.701zM15.232 15.96l-2.005-2.005c-0.123-0.127-0.295-0.206-0.486-0.206s-0.363 0.079-0.486 0.205l-4.103 4.103c-0.274 0.263-0.274 0.697 0 0.971l2.002 2.002 0.704-0.704-1.794-1.787 3.68-3.669 1.787 1.786 0.699-0.698zM7.797 7.078l4.091 4.091c0.274 0.274 0.709 0.274 0.971-0.011l4.091-4.091c0.127-0.121 0.206-0.291 0.206-0.479 0-0 0-0 0-0.001v0h0.011c0-0.171-0.069-0.354-0.206-0.491l-4.091-4.091c-0.125-0.127-0.299-0.206-0.491-0.206s-0.366 0.079-0.491 0.205l-0 0-4.091 4.103c-0.274 0.263-0.274 0.697 0 0.971zM2.002 12.872l4.091 4.091c0.274 0.274 0.709 0.274 0.971 0l4.091-4.091c0.127-0.121 0.206-0.291 0.206-0.48 0-0.004-0-0.008-0-0.012v0.001h0.011c0-0.183-0.069-0.354-0.206-0.491l-4.091-4.091c-0.123-0.127-0.295-0.206-0.486-0.206s-0.363 0.079-0.486 0.205l-4.103 4.103c-0.274 0.263-0.274 0.697 0 0.971zM9.926 22.877l2.699 2.701 11.013-14.903-0.749-0.749-12.963 12.951z"></path>
</symbol>
<symbol id="icon-Coin" viewBox="0 0 32 32">
<path d="M16 2.667c-7.333 0-13.333 6-13.333 13.333s6 13.333 13.333 13.333 13.333-6 13.333-13.333-6-13.333-13.333-13.333zM16 26.667c-5.867 0-10.667-4.8-10.667-10.667s4.8-10.667 10.667-10.667 10.667 4.8 10.667 10.667-4.8 10.667-10.667 10.667z"></path>
<path d="M17.733 14.667h-3.466c-0.667 0-1.2-0.534-1.2-1.2 0-0.667 0.533-1.2 1.2-1.2h4.933c0.8 0 1.333-0.534 1.333-1.334s-0.533-1.333-1.333-1.333h-1.867v-1.2c0-0.8-0.533-1.333-1.333-1.333s-1.333 0.533-1.333 1.333v1.2h-0.4c-2.135 0.002-3.865 1.732-3.867 3.867v0c0.002 2.135 1.732 3.864 3.867 3.866h3.333c0.667 0 1.2 0.534 1.2 1.2 0 0.667-0.533 1.2-1.2 1.2h-4.933c-0.8 0-1.334 0.534-1.334 1.334s0.534 1.333 1.334 1.333h2v1.2c0 0.8 0.533 1.333 1.333 1.333s1.333-0.533 1.333-1.333v-1.2h0.4c2.135-0.002 3.865-1.732 3.867-3.867v-0c-0.002-2.135-1.732-3.864-3.867-3.866h-0z"></path>
</symbol>
<symbol id="icon-spoon" viewBox="0 0 32 32">
<path d="M15.373 13.835c-0.837-1.010-1.344-2.319-1.344-3.746 0-0.002 0-0.003 0-0.005v0c0-4.942 5.921-9.877 11.842-9.877 3.27 0.001 5.921 2.652 5.921 5.922v0c0 5.922-4.934 11.845-9.881 11.845-0.001 0-0.002 0-0.003 0-1.428 0-2.737-0.508-3.756-1.353l0.010 0.008-14.581 14.584c-0.352 0.328-0.826 0.53-1.347 0.53-1.092 0-1.977-0.885-1.977-1.977 0-0.521 0.201-0.995 0.531-1.348l-0.001 0.001 14.585-14.584z"></path>
</symbol>
</defs>
</svg>
